PathFileType	4	(X/Y/Z)	c:\Git\powerlifing_model_clean\simulations\HC835B\Session1\HC835B_OGW_0001\marker_experimental.trc
DataRate	CameraRate	NumFrames	NumMarkers	Units	OrigDataRate	OrigDataStartFrame	OrigNumFrames
240.000000	240.000000	4	38	mm	240.000000	378	433
Frame#	Time	RPSI			LPSI			RASI			LASI			RTH1			RTH2			RTH3			RTH4			RSK1			RSK2			RSK3			RSK4			RCAL1			RCAL2			RCAL3			RST			RPT			RTN			RFMB			RSMB			RVMB			RFMH			RSMH			RVMH			RPM			LTH1			LTH2			LTH3			LTH4			LSK1			LSK2			LSK3			LSK4			LCAL1			LCAL2			LCAL3			LFMH			LVMH			
		X1	Y1	Z1	X2	Y2	Z2	X3	Y3	Z3	X4	Y4	Z4	X5	Y5	Z5	X6	Y6	Z6	X7	Y7	Z7	X8	Y8	Z8	X9	Y9	Z9	X10	Y10	Z10	X11	Y11	Z11	X12	Y12	Z12	X13	Y13	Z13	X14	Y14	Z14	X15	Y15	Z15	X16	Y16	Z16	X17	Y17	Z17	X18	Y18	Z18	X19	Y19	Z19	X20	Y20	Z20	X21	Y21	Z21	X22	Y22	Z22	X23	Y23	Z23	X24	Y24	Z24	X25	Y25	Z25	X26	Y26	Z26	X27	Y27	Z27	X28	Y28	Z28	X29	Y29	Z29	X30	Y30	Z30	X31	Y31	Z31	X32	Y32	Z32	X33	Y33	Z33	X34	Y34	Z34	X35	Y35	Z35	X36	Y36	Z36	X37	Y37	Z37	X38	Y38	Z38	

379	1.575	438.1220092773439	1119.584716796875	113.2046737670899	545.0794677734376	1107.317016601563	118.5424270629883	351.8348388671876	1069.051879882813	312.2292480468751	597.4866333007814	1060.279174804688	331.7575988769532	301.0483398437501	812.034606933594	168.8336639404297	309.6996459960938	785.9046020507815	222.7468719482422	315.6115722656251	728.6472167968751	169.9710540771485	335.6222534179688	704.0514526367189	219.5687713623047	385.1307678222657	322.0663452148438	-61.7760581970215	378.8981628417969	287.3488159179688	-11.25758075714112	390.3746948242189	264.4346618652344	-66.04013824462892	398.1840820312501	231.1375274658204	-15.80655384063721	462.2388610839845	129.3536224365235	-167.2857360839844	493.6204528808595	90.94925689697267	-161.8323822021485	430.022674560547	92.87361145019533	-172.9945983886719	499.1660156250001	94.1665725708008	-91.24608612060548	399.0091247558595	93.90086364746095	-116.3621063232422	478.5179138183595	104.0627365112305	-34.97770309448243	469.1216430664064	83.39170074462892	-6.859325408935549	419.6847534179689	105.1765747070313	-0.9724522829055788	383.3373413085938	61.06248474121095	-79.21916961669923	463.8463439941407	52.09385299682619	41.37083816528321	407.9438781738282	62.10659408569337	50.84043502807619	357.0863037109376	44.16100692749024	-7.452932834625246	413.446258544922	45.75953674316407	108.177360534668	678.6324462890626	787.192321777344	323.1183776855469	667.5628051757814	798.099060058594	381.5736694335938	668.3331298828126	717.5194091796876	372.1259765625001	644.4968261718751	729.5278930664064	427.705780029297	641.0931396484376	294.1439514160157	507.9795227050782	649.4152221679689	303.4793701171876	559.8008422851564	640.7072753906251	254.9701080322266	548.9390869140626	634.4415893554689	268.7261352539063	603.2910766601564	579.7915039062501	95.87606811523439	584.5345458984376	605.7573242187501	60.70994949340822	602.3276367187501	547.7043457031251	71.15784454345705	605.2781372070314	565.5313110351564	185.6205749511719	792.1810302734377	661.3872680664064	130.1911010742188	774.4079589843752	
380	1.579166666666667	438.370330810547	1118.439331054688	120.4194107055664	545.3842163085939	1106.129028320313	125.6324310302735	351.8175659179688	1068.04345703125	319.2630615234376	597.0389404296876	1059.247680664063	339.0500183105469	300.4709777832032	811.4599609375002	175.2195281982422	309.3980407714844	784.9504394531252	229.1143646240235	315.3176879882813	727.9710083007814	176.1638336181641	335.0088806152344	702.9332275390626	225.8551177978516	384.7601013183595	323.1523437500001	-58.64274215698244	378.4828186035157	287.9331054687501	-8.462104797363283	389.8919982910157	265.5570983886719	-63.47657012939455	397.6094665527345	231.8254394531251	-13.6444673538208	461.5915832519532	131.391830444336	-166.2032470703125	493.1196289062501	93.10165405273439	-161.2029418945313	429.5241699218751	94.90362548828126	-172.2522735595703	498.670135498047	95.7134475708008	-90.59461212158205	398.547088623047	95.28639221191408	-115.6722564697266	478.2190551757814	105.43603515625	-34.28974533081055	468.7775878906251	83.93106842041017	-6.340089797973635	419.2618103027345	105.4447174072266	-0.2217489778995514	383.0921936035157	62.16152954101564	-78.71347045898439	463.7539672851564	52.0962600708008	41.49990844726563	407.7668457031251	61.783016204834	51.13056945800783	356.9787597656251	44.17116165161134	-7.358582496643068	413.4214477539064	45.64609146118165	108.2100219726563	678.5313720703126	786.8135986328127	331.5895080566407	667.2561035156251	797.9356689453127	389.9523925781251	667.9020996093751	717.3839721679689	380.8098449707032	643.6148071289064	729.5808715820314	436.1110229492189	639.4032592773439	292.6675720214844	514.5372314453126	648.2615356445314	301.6350708007813	566.3426513671876	639.1981811523439	253.2110137939454	555.3185424804689	633.5479125976564	266.7728576660157	609.8265380859376	578.0503540039064	94.62760162353517	588.1615600585939	603.2301635742189	58.36706161499025	609.3601074218751	545.0418090820314	69.87458801269533	613.0847778320314	564.7295532226564	185.7292022705078	797.9522705078127	659.6816406250001	128.4979553222657	781.0258789062502	
381	1.583333333333333	438.5383605957032	1117.203369140625	127.711166381836	545.6975708007814	1104.928344726563	132.7379302978516	351.8123779296876	1067.080200195313	326.3122253417969	596.6531982421876	1058.242431640625	346.4023742675782	300.3383483886719	810.6411743164065	181.7649536132813	309.2728881835938	783.8022460937502	235.5028991699219	315.1281738281251	726.8928833007814	182.5222320556641	334.5865783691407	701.8464355468751	232.1827087402344	384.3485107421876	324.2024841308594	-55.37273406982423	378.0054931640626	288.4732971191407	-5.55302906036377	389.2036743164064	266.8546447753907	-60.72902297973634	397.0194702148439	232.5537109375001	-11.2492265701294	461.6463928222657	133.7516632080078	-166.4442749023438	492.5740966796876	95.4740676879883	-160.5111083984375	428.9190673828126	97.05574798583987	-171.3654174804688	498.1319885253907	97.37475585937503	-89.89035797119142	397.9703369140626	96.94702148437503	-114.9954833984375	477.7210998535157	106.4607772827149	-33.48691558837891	468.4001464843751	84.54872131347658	-5.781693935394288	418.7628173828126	105.7828979492188	0.6296694278717042	382.7657165527344	63.01009368896486	-78.29236602783205	463.6531066894532	52.10895919799806	41.62074661254884	407.539520263672	61.42405319213869	51.44052505493165	356.8128662109376	44.20734024047852	-7.267955780029299	413.4155883789064	45.53310775756837	108.2186584472657	678.5886230468751	786.6965332031252	340.3663635253907	666.8648681640626	797.9236450195315	398.5782470703126	667.5772705078126	717.3494873046876	389.6929931640626	642.7055664062501	729.7225341796876	444.7091369628907	637.6156616210939	291.1893920898438	520.8519287109376	647.0234375000001	299.5687866210938	572.5905761718751	637.5496215820314	251.4232940673829	561.2943725585939	632.4837036132814	264.4981994628907	615.9524536132814	577.2883911132814	92.79772949218751	591.9631347656251	601.6245727539064	56.49408340454103	614.8310546875001	543.4053955078126	68.25025177001955	618.2337646484376	563.2304687500001	184.4790191650391	804.0222778320315	657.8886108398439	126.1546096801758	786.6047973632815	
382	1.5875	438.7560424804689	1115.914916992188	135.0289154052735	545.9545288085939	1103.655639648438	139.9392700195313	351.8117065429688	1065.855346679688	333.4818115234376	596.4465942382814	1057.280883789063	353.9477539062501	300.1903076171876	809.7664794921877	188.4463195800782	309.0148315429688	782.9191894531252	242.1389312744141	314.9495544433594	725.8970947265626	189.0106353759766	334.2139587402344	700.8688354492189	238.7093658447266	383.8707580566407	325.5199890136719	-51.95993041992189	377.5312805175782	289.0736389160157	-2.553053140640259	389.5904846191407	267.5204467773438	-58.31350326538087	395.9998474121095	233.1687164306641	-9.139435768127443	460.8401794433595	136.1051483154297	-165.1974334716797	491.9869995117189	97.99648284912112	-159.7341003417969	428.3520812988282	99.35365295410159	-170.5319061279297	497.5911865234376	99.19403839111331	-89.11663818359376	397.3140258789064	98.44461822509768	-114.0080108642578	477.1732482910157	107.5167083740235	-32.60435867309571	467.9580993652345	85.16167449951173	-5.187000274658204	418.2423706054689	106.1539459228516	1.587104797363282	382.3918151855469	63.95349502563478	-77.84514617919923	463.558319091797	52.14353179931642	41.76998138427735	407.3388061523439	61.17951583862306	51.78451156616212	356.5885314941407	44.17122268676759	-7.169299602508547	413.3946228027345	45.44979095458985	108.2514190673828	678.5424804687501	786.6126708984377	349.2223205566407	666.3422851562501	798.0297851562502	407.3550109863282	667.2515258789064	717.4155883789064	398.7389526367189	641.8872070312501	729.9558105468751	453.473602294922	635.7472534179689	289.6757202148438	526.7857666015626	645.7395019531251	297.4377136230469	578.5805664062501	635.8538818359376	249.4993438720704	566.8104248046876	631.2442016601564	261.9753723144532	621.6119384765626	575.2337646484376	90.7814407348633	597.7661132812501	600.0337524414064	54.21680450439455	619.1634521484376	541.9445800781251	65.98587799072267	622.5380249023439	561.7836303710939	181.3675689697266	807.8853149414065	656.1516113281251	123.4833526611328	791.059265136719	
